<mxfile host="app.diagrams.net" modified="2022-11-07T15:23:54.814Z" agent="5.0 (X11; Ubuntu)" etag="u9BZUhIDs3sanpGlZh0q" version="20.5.1" type="github">
  <diagram id="R2lEEEUBdFMjLlhIrx00" name="Page-1">
    <mxGraphModel dx="1422" dy="771" grid="1" gridSize="10" guides="1" tooltips="1" connect="1" arrows="1" fold="1" page="1" pageScale="1" pageWidth="1100" pageHeight="850" math="0" shadow="0" extFonts="Permanent Marker^https://fonts.googleapis.com/css?family=Permanent+Marker">
      <root>
        <mxCell id="0" />
        <mxCell id="1" parent="0" />
        <mxCell id="P5QB1PJldriL9mMZKFmA-2" value="alumno" style="whiteSpace=wrap;html=1;align=center;fillColor=#d5e8d4;strokeColor=#82b366;" vertex="1" parent="1">
          <mxGeometry x="540" y="110" width="100" height="40" as="geometry" />
        </mxCell>
        <mxCell id="P5QB1PJldriL9mMZKFmA-3" value="profesor" style="whiteSpace=wrap;html=1;align=center;fillColor=#d5e8d4;strokeColor=#82b366;" vertex="1" parent="1">
          <mxGeometry x="210" y="110" width="100" height="40" as="geometry" />
        </mxCell>
        <mxCell id="P5QB1PJldriL9mMZKFmA-5" style="edgeStyle=orthogonalEdgeStyle;rounded=0;orthogonalLoop=1;jettySize=auto;html=1;entryX=0;entryY=0.5;entryDx=0;entryDy=0;" edge="1" parent="1" source="P5QB1PJldriL9mMZKFmA-4" target="P5QB1PJldriL9mMZKFmA-2">
          <mxGeometry relative="1" as="geometry" />
        </mxCell>
        <mxCell id="P5QB1PJldriL9mMZKFmA-4" value="da clase" style="shape=rhombus;perimeter=rhombusPerimeter;whiteSpace=wrap;html=1;align=center;fillColor=#fff2cc;strokeColor=#d6b656;" vertex="1" parent="1">
          <mxGeometry x="365" y="100" width="120" height="60" as="geometry" />
        </mxCell>
        <mxCell id="P5QB1PJldriL9mMZKFmA-6" value="" style="endArrow=none;html=1;rounded=0;exitX=0;exitY=0.5;exitDx=0;exitDy=0;entryX=1;entryY=0.5;entryDx=0;entryDy=0;" edge="1" parent="1" source="P5QB1PJldriL9mMZKFmA-4" target="P5QB1PJldriL9mMZKFmA-3">
          <mxGeometry relative="1" as="geometry">
            <mxPoint x="340" y="340" as="sourcePoint" />
            <mxPoint x="500" y="340" as="targetPoint" />
          </mxGeometry>
        </mxCell>
        <mxCell id="P5QB1PJldriL9mMZKFmA-9" value="( 1,n )" style="text;html=1;strokeColor=none;fillColor=none;align=center;verticalAlign=middle;whiteSpace=wrap;rounded=0;" vertex="1" parent="1">
          <mxGeometry x="480" y="100" width="60" height="30" as="geometry" />
        </mxCell>
        <mxCell id="P5QB1PJldriL9mMZKFmA-10" value="( 1,1 )" style="text;html=1;strokeColor=none;fillColor=none;align=center;verticalAlign=middle;whiteSpace=wrap;rounded=0;" vertex="1" parent="1">
          <mxGeometry x="310" y="100" width="60" height="30" as="geometry" />
        </mxCell>
        <mxCell id="P5QB1PJldriL9mMZKFmA-14" value="1 : N" style="text;html=1;strokeColor=none;fillColor=none;align=center;verticalAlign=middle;whiteSpace=wrap;rounded=0;" vertex="1" parent="1">
          <mxGeometry x="395" y="70" width="60" height="30" as="geometry" />
        </mxCell>
        <mxCell id="P5QB1PJldriL9mMZKFmA-17" value="código alumno" style="ellipse;whiteSpace=wrap;html=1;align=center;fontStyle=4;fillColor=#dae8fc;strokeColor=#6c8ebf;" vertex="1" parent="1">
          <mxGeometry x="680" y="110" width="100" height="40" as="geometry" />
        </mxCell>
        <mxCell id="P5QB1PJldriL9mMZKFmA-19" value="" style="endArrow=none;html=1;rounded=0;exitX=1;exitY=0.5;exitDx=0;exitDy=0;entryX=0;entryY=0.5;entryDx=0;entryDy=0;" edge="1" parent="1" source="P5QB1PJldriL9mMZKFmA-41" target="P5QB1PJldriL9mMZKFmA-3">
          <mxGeometry relative="1" as="geometry">
            <mxPoint x="170" y="130" as="sourcePoint" />
            <mxPoint x="500" y="370" as="targetPoint" />
          </mxGeometry>
        </mxCell>
        <mxCell id="P5QB1PJldriL9mMZKFmA-20" value="" style="endArrow=none;html=1;rounded=0;exitX=0;exitY=0.5;exitDx=0;exitDy=0;entryX=1;entryY=0.5;entryDx=0;entryDy=0;" edge="1" parent="1" source="P5QB1PJldriL9mMZKFmA-17" target="P5QB1PJldriL9mMZKFmA-2">
          <mxGeometry relative="1" as="geometry">
            <mxPoint x="340" y="370" as="sourcePoint" />
            <mxPoint x="500" y="370" as="targetPoint" />
          </mxGeometry>
        </mxCell>
        <mxCell id="P5QB1PJldriL9mMZKFmA-21" value="profesor" style="shape=table;startSize=30;container=1;collapsible=1;childLayout=tableLayout;fixedRows=1;rowLines=0;fontStyle=1;align=center;resizeLast=1;" vertex="1" parent="1">
          <mxGeometry x="170" y="250" width="180" height="60" as="geometry" />
        </mxCell>
        <mxCell id="P5QB1PJldriL9mMZKFmA-22" value="" style="shape=tableRow;horizontal=0;startSize=0;swimlaneHead=0;swimlaneBody=0;fillColor=none;collapsible=0;dropTarget=0;points=[[0,0.5],[1,0.5]];portConstraint=eastwest;top=0;left=0;right=0;bottom=1;" vertex="1" parent="P5QB1PJldriL9mMZKFmA-21">
          <mxGeometry y="30" width="180" height="30" as="geometry" />
        </mxCell>
        <mxCell id="P5QB1PJldriL9mMZKFmA-23" value="PK" style="shape=partialRectangle;connectable=0;fillColor=none;top=0;left=0;bottom=0;right=0;fontStyle=1;overflow=hidden;" vertex="1" parent="P5QB1PJldriL9mMZKFmA-22">
          <mxGeometry width="30" height="30" as="geometry">
            <mxRectangle width="30" height="30" as="alternateBounds" />
          </mxGeometry>
        </mxCell>
        <mxCell id="P5QB1PJldriL9mMZKFmA-24" value="código profesor" style="shape=partialRectangle;connectable=0;fillColor=none;top=0;left=0;bottom=0;right=0;align=left;spacingLeft=6;fontStyle=5;overflow=hidden;" vertex="1" parent="P5QB1PJldriL9mMZKFmA-22">
          <mxGeometry x="30" width="150" height="30" as="geometry">
            <mxRectangle width="150" height="30" as="alternateBounds" />
          </mxGeometry>
        </mxCell>
        <mxCell id="P5QB1PJldriL9mMZKFmA-34" value="alumno" style="shape=table;startSize=30;container=1;collapsible=1;childLayout=tableLayout;fixedRows=1;rowLines=0;fontStyle=1;align=center;resizeLast=1;" vertex="1" parent="1">
          <mxGeometry x="500" y="220" width="180" height="90" as="geometry" />
        </mxCell>
        <mxCell id="P5QB1PJldriL9mMZKFmA-35" value="" style="shape=tableRow;horizontal=0;startSize=0;swimlaneHead=0;swimlaneBody=0;fillColor=none;collapsible=0;dropTarget=0;points=[[0,0.5],[1,0.5]];portConstraint=eastwest;top=0;left=0;right=0;bottom=1;" vertex="1" parent="P5QB1PJldriL9mMZKFmA-34">
          <mxGeometry y="30" width="180" height="30" as="geometry" />
        </mxCell>
        <mxCell id="P5QB1PJldriL9mMZKFmA-36" value="PK" style="shape=partialRectangle;connectable=0;fillColor=none;top=0;left=0;bottom=0;right=0;fontStyle=1;overflow=hidden;" vertex="1" parent="P5QB1PJldriL9mMZKFmA-35">
          <mxGeometry width="30" height="30" as="geometry">
            <mxRectangle width="30" height="30" as="alternateBounds" />
          </mxGeometry>
        </mxCell>
        <mxCell id="P5QB1PJldriL9mMZKFmA-37" value="código alumno" style="shape=partialRectangle;connectable=0;fillColor=none;top=0;left=0;bottom=0;right=0;align=left;spacingLeft=6;fontStyle=5;overflow=hidden;" vertex="1" parent="P5QB1PJldriL9mMZKFmA-35">
          <mxGeometry x="30" width="150" height="30" as="geometry">
            <mxRectangle width="150" height="30" as="alternateBounds" />
          </mxGeometry>
        </mxCell>
        <mxCell id="P5QB1PJldriL9mMZKFmA-38" value="" style="shape=tableRow;horizontal=0;startSize=0;swimlaneHead=0;swimlaneBody=0;fillColor=none;collapsible=0;dropTarget=0;points=[[0,0.5],[1,0.5]];portConstraint=eastwest;top=0;left=0;right=0;bottom=0;" vertex="1" parent="P5QB1PJldriL9mMZKFmA-34">
          <mxGeometry y="60" width="180" height="30" as="geometry" />
        </mxCell>
        <mxCell id="P5QB1PJldriL9mMZKFmA-39" value="FK" style="shape=partialRectangle;connectable=0;fillColor=none;top=0;left=0;bottom=0;right=0;editable=1;overflow=hidden;" vertex="1" parent="P5QB1PJldriL9mMZKFmA-38">
          <mxGeometry width="30" height="30" as="geometry">
            <mxRectangle width="30" height="30" as="alternateBounds" />
          </mxGeometry>
        </mxCell>
        <mxCell id="P5QB1PJldriL9mMZKFmA-40" value="código profesor" style="shape=partialRectangle;connectable=0;fillColor=none;top=0;left=0;bottom=0;right=0;align=left;spacingLeft=6;overflow=hidden;" vertex="1" parent="P5QB1PJldriL9mMZKFmA-38">
          <mxGeometry x="30" width="150" height="30" as="geometry">
            <mxRectangle width="150" height="30" as="alternateBounds" />
          </mxGeometry>
        </mxCell>
        <mxCell id="P5QB1PJldriL9mMZKFmA-41" value="código profesor" style="ellipse;whiteSpace=wrap;html=1;align=center;fontStyle=4;fillColor=#dae8fc;strokeColor=#6c8ebf;" vertex="1" parent="1">
          <mxGeometry x="70" y="110" width="100" height="40" as="geometry" />
        </mxCell>
        <mxCell id="P5QB1PJldriL9mMZKFmA-46" style="edgeStyle=orthogonalEdgeStyle;rounded=0;orthogonalLoop=1;jettySize=auto;html=1;entryX=1;entryY=0.75;entryDx=0;entryDy=0;exitX=0;exitY=0.5;exitDx=0;exitDy=0;" edge="1" parent="1" source="P5QB1PJldriL9mMZKFmA-38" target="P5QB1PJldriL9mMZKFmA-21">
          <mxGeometry relative="1" as="geometry" />
        </mxCell>
        <mxCell id="P5QB1PJldriL9mMZKFmA-47" value="En una academia los profesores dan clase a los alumnos matriculados de modo que todo profesor da clase al menos a un alumno y todo alumno recibe clase de un único profesor." style="text;whiteSpace=wrap;html=1;" vertex="1" parent="1">
          <mxGeometry x="15" y="30" width="820" height="40" as="geometry" />
        </mxCell>
        <mxCell id="P5QB1PJldriL9mMZKFmA-48" value="Los profesores de un centro pueden ser o no tutores de un alumno, en cualquier caso los alumnos solo podrán tener un único tutor." style="text;whiteSpace=wrap;html=1;" vertex="1" parent="1">
          <mxGeometry x="15" y="340" width="815" height="30" as="geometry" />
        </mxCell>
        <mxCell id="P5QB1PJldriL9mMZKFmA-49" value="profesor" style="whiteSpace=wrap;html=1;align=center;fillColor=#d5e8d4;strokeColor=#82b366;" vertex="1" parent="1">
          <mxGeometry x="210" y="450" width="100" height="40" as="geometry" />
        </mxCell>
        <mxCell id="P5QB1PJldriL9mMZKFmA-50" value="alumno" style="whiteSpace=wrap;html=1;align=center;fillColor=#d5e8d4;strokeColor=#82b366;" vertex="1" parent="1">
          <mxGeometry x="540" y="450" width="100" height="40" as="geometry" />
        </mxCell>
        <mxCell id="P5QB1PJldriL9mMZKFmA-54" style="edgeStyle=orthogonalEdgeStyle;rounded=0;orthogonalLoop=1;jettySize=auto;html=1;entryX=0;entryY=0.5;entryDx=0;entryDy=0;" edge="1" parent="1" source="P5QB1PJldriL9mMZKFmA-51" target="P5QB1PJldriL9mMZKFmA-50">
          <mxGeometry relative="1" as="geometry" />
        </mxCell>
        <mxCell id="P5QB1PJldriL9mMZKFmA-51" value="es tutor" style="shape=rhombus;perimeter=rhombusPerimeter;whiteSpace=wrap;html=1;align=center;fillColor=#fff2cc;strokeColor=#d6b656;" vertex="1" parent="1">
          <mxGeometry x="360" y="440" width="120" height="60" as="geometry" />
        </mxCell>
        <mxCell id="P5QB1PJldriL9mMZKFmA-52" value="( 1,1 )" style="text;html=1;strokeColor=none;fillColor=none;align=center;verticalAlign=middle;whiteSpace=wrap;rounded=0;" vertex="1" parent="1">
          <mxGeometry x="310" y="440" width="60" height="30" as="geometry" />
        </mxCell>
        <mxCell id="P5QB1PJldriL9mMZKFmA-53" value="" style="endArrow=none;html=1;rounded=0;exitX=1;exitY=0.5;exitDx=0;exitDy=0;entryX=0;entryY=0.5;entryDx=0;entryDy=0;" edge="1" parent="1" source="P5QB1PJldriL9mMZKFmA-49" target="P5QB1PJldriL9mMZKFmA-51">
          <mxGeometry relative="1" as="geometry">
            <mxPoint x="340" y="370" as="sourcePoint" />
            <mxPoint x="500" y="370" as="targetPoint" />
          </mxGeometry>
        </mxCell>
        <mxCell id="P5QB1PJldriL9mMZKFmA-55" value="( 0,n )" style="text;html=1;strokeColor=none;fillColor=none;align=center;verticalAlign=middle;whiteSpace=wrap;rounded=0;" vertex="1" parent="1">
          <mxGeometry x="480" y="440" width="60" height="30" as="geometry" />
        </mxCell>
        <mxCell id="P5QB1PJldriL9mMZKFmA-56" value="1 : N" style="text;html=1;strokeColor=none;fillColor=none;align=center;verticalAlign=middle;whiteSpace=wrap;rounded=0;" vertex="1" parent="1">
          <mxGeometry x="390" y="410" width="60" height="30" as="geometry" />
        </mxCell>
        <mxCell id="P5QB1PJldriL9mMZKFmA-57" value="profesor" style="shape=table;startSize=30;container=1;collapsible=1;childLayout=tableLayout;fixedRows=1;rowLines=0;fontStyle=1;align=center;resizeLast=1;" vertex="1" parent="1">
          <mxGeometry x="167.5" y="570" width="180" height="60" as="geometry" />
        </mxCell>
        <mxCell id="P5QB1PJldriL9mMZKFmA-58" value="" style="shape=tableRow;horizontal=0;startSize=0;swimlaneHead=0;swimlaneBody=0;fillColor=none;collapsible=0;dropTarget=0;points=[[0,0.5],[1,0.5]];portConstraint=eastwest;top=0;left=0;right=0;bottom=1;" vertex="1" parent="P5QB1PJldriL9mMZKFmA-57">
          <mxGeometry y="30" width="180" height="30" as="geometry" />
        </mxCell>
        <mxCell id="P5QB1PJldriL9mMZKFmA-59" value="PK" style="shape=partialRectangle;connectable=0;fillColor=none;top=0;left=0;bottom=0;right=0;fontStyle=1;overflow=hidden;" vertex="1" parent="P5QB1PJldriL9mMZKFmA-58">
          <mxGeometry width="30" height="30" as="geometry">
            <mxRectangle width="30" height="30" as="alternateBounds" />
          </mxGeometry>
        </mxCell>
        <mxCell id="P5QB1PJldriL9mMZKFmA-60" value="código profesor" style="shape=partialRectangle;connectable=0;fillColor=none;top=0;left=0;bottom=0;right=0;align=left;spacingLeft=6;fontStyle=5;overflow=hidden;" vertex="1" parent="P5QB1PJldriL9mMZKFmA-58">
          <mxGeometry x="30" width="150" height="30" as="geometry">
            <mxRectangle width="150" height="30" as="alternateBounds" />
          </mxGeometry>
        </mxCell>
        <mxCell id="P5QB1PJldriL9mMZKFmA-61" value="alumno" style="shape=table;startSize=30;container=1;collapsible=1;childLayout=tableLayout;fixedRows=1;rowLines=0;fontStyle=1;align=center;resizeLast=1;" vertex="1" parent="1">
          <mxGeometry x="497.5" y="540" width="180" height="90" as="geometry">
            <mxRectangle x="497.5" y="540" width="80" height="30" as="alternateBounds" />
          </mxGeometry>
        </mxCell>
        <mxCell id="P5QB1PJldriL9mMZKFmA-62" value="" style="shape=tableRow;horizontal=0;startSize=0;swimlaneHead=0;swimlaneBody=0;fillColor=none;collapsible=0;dropTarget=0;points=[[0,0.5],[1,0.5]];portConstraint=eastwest;top=0;left=0;right=0;bottom=1;" vertex="1" parent="P5QB1PJldriL9mMZKFmA-61">
          <mxGeometry y="30" width="180" height="30" as="geometry" />
        </mxCell>
        <mxCell id="P5QB1PJldriL9mMZKFmA-63" value="PK" style="shape=partialRectangle;connectable=0;fillColor=none;top=0;left=0;bottom=0;right=0;fontStyle=1;overflow=hidden;" vertex="1" parent="P5QB1PJldriL9mMZKFmA-62">
          <mxGeometry width="30" height="30" as="geometry">
            <mxRectangle width="30" height="30" as="alternateBounds" />
          </mxGeometry>
        </mxCell>
        <mxCell id="P5QB1PJldriL9mMZKFmA-64" value="código alumno" style="shape=partialRectangle;connectable=0;fillColor=none;top=0;left=0;bottom=0;right=0;align=left;spacingLeft=6;fontStyle=5;overflow=hidden;" vertex="1" parent="P5QB1PJldriL9mMZKFmA-62">
          <mxGeometry x="30" width="150" height="30" as="geometry">
            <mxRectangle width="150" height="30" as="alternateBounds" />
          </mxGeometry>
        </mxCell>
        <mxCell id="P5QB1PJldriL9mMZKFmA-65" value="" style="shape=tableRow;horizontal=0;startSize=0;swimlaneHead=0;swimlaneBody=0;fillColor=none;collapsible=0;dropTarget=0;points=[[0,0.5],[1,0.5]];portConstraint=eastwest;top=0;left=0;right=0;bottom=0;" vertex="1" parent="P5QB1PJldriL9mMZKFmA-61">
          <mxGeometry y="60" width="180" height="30" as="geometry" />
        </mxCell>
        <mxCell id="P5QB1PJldriL9mMZKFmA-66" value="FK" style="shape=partialRectangle;connectable=0;fillColor=none;top=0;left=0;bottom=0;right=0;editable=1;overflow=hidden;" vertex="1" parent="P5QB1PJldriL9mMZKFmA-65">
          <mxGeometry width="30" height="30" as="geometry">
            <mxRectangle width="30" height="30" as="alternateBounds" />
          </mxGeometry>
        </mxCell>
        <mxCell id="P5QB1PJldriL9mMZKFmA-67" value="código profesor" style="shape=partialRectangle;connectable=0;fillColor=none;top=0;left=0;bottom=0;right=0;align=left;spacingLeft=6;overflow=hidden;" vertex="1" parent="P5QB1PJldriL9mMZKFmA-65">
          <mxGeometry x="30" width="150" height="30" as="geometry">
            <mxRectangle width="150" height="30" as="alternateBounds" />
          </mxGeometry>
        </mxCell>
        <mxCell id="P5QB1PJldriL9mMZKFmA-68" style="edgeStyle=orthogonalEdgeStyle;rounded=0;orthogonalLoop=1;jettySize=auto;html=1;entryX=1;entryY=0.75;entryDx=0;entryDy=0;exitX=0;exitY=0.5;exitDx=0;exitDy=0;" edge="1" parent="1" source="P5QB1PJldriL9mMZKFmA-65" target="P5QB1PJldriL9mMZKFmA-57">
          <mxGeometry relative="1" as="geometry" />
        </mxCell>
        <mxCell id="P5QB1PJldriL9mMZKFmA-72" value="En un comercio, un cliente compra varios productos, y un producto puede ser comprado por varios clientes." style="text;whiteSpace=wrap;html=1;" vertex="1" parent="1">
          <mxGeometry x="15" y="660" width="815" height="40" as="geometry" />
        </mxCell>
        <mxCell id="P5QB1PJldriL9mMZKFmA-73" value="cliente" style="whiteSpace=wrap;html=1;align=center;fillColor=#d5e8d4;strokeColor=#82b366;" vertex="1" parent="1">
          <mxGeometry x="210" y="760" width="100" height="40" as="geometry" />
        </mxCell>
        <mxCell id="P5QB1PJldriL9mMZKFmA-74" value="producto" style="whiteSpace=wrap;html=1;align=center;fillColor=#d5e8d4;strokeColor=#82b366;" vertex="1" parent="1">
          <mxGeometry x="540" y="760" width="100" height="40" as="geometry" />
        </mxCell>
        <mxCell id="P5QB1PJldriL9mMZKFmA-76" style="edgeStyle=orthogonalEdgeStyle;rounded=0;orthogonalLoop=1;jettySize=auto;html=1;entryX=1;entryY=0.5;entryDx=0;entryDy=0;" edge="1" parent="1" source="P5QB1PJldriL9mMZKFmA-75" target="P5QB1PJldriL9mMZKFmA-73">
          <mxGeometry relative="1" as="geometry" />
        </mxCell>
        <mxCell id="P5QB1PJldriL9mMZKFmA-77" style="edgeStyle=orthogonalEdgeStyle;rounded=0;orthogonalLoop=1;jettySize=auto;html=1;entryX=0;entryY=0.5;entryDx=0;entryDy=0;" edge="1" parent="1" source="P5QB1PJldriL9mMZKFmA-75" target="P5QB1PJldriL9mMZKFmA-74">
          <mxGeometry relative="1" as="geometry" />
        </mxCell>
        <mxCell id="P5QB1PJldriL9mMZKFmA-75" value="compra" style="shape=rhombus;perimeter=rhombusPerimeter;whiteSpace=wrap;html=1;align=center;fillColor=#fff2cc;strokeColor=#d6b656;" vertex="1" parent="1">
          <mxGeometry x="365" y="750" width="120" height="60" as="geometry" />
        </mxCell>
        <mxCell id="P5QB1PJldriL9mMZKFmA-82" value="( 0,n )" style="text;html=1;strokeColor=none;fillColor=none;align=center;verticalAlign=middle;whiteSpace=wrap;rounded=0;" vertex="1" parent="1">
          <mxGeometry x="310" y="750" width="60" height="30" as="geometry" />
        </mxCell>
        <mxCell id="P5QB1PJldriL9mMZKFmA-83" value="( 1,n )" style="text;html=1;strokeColor=none;fillColor=none;align=center;verticalAlign=middle;whiteSpace=wrap;rounded=0;" vertex="1" parent="1">
          <mxGeometry x="480" y="750" width="60" height="30" as="geometry" />
        </mxCell>
        <mxCell id="P5QB1PJldriL9mMZKFmA-84" value="N : M" style="text;html=1;strokeColor=none;fillColor=none;align=center;verticalAlign=middle;whiteSpace=wrap;rounded=0;" vertex="1" parent="1">
          <mxGeometry x="395" y="720" width="60" height="30" as="geometry" />
        </mxCell>
        <mxCell id="P5QB1PJldriL9mMZKFmA-85" value="cliente" style="shape=table;startSize=30;container=1;collapsible=1;childLayout=tableLayout;fixedRows=1;rowLines=0;fontStyle=1;align=center;resizeLast=1;strokeColor=#000000;" vertex="1" parent="1">
          <mxGeometry x="70" y="860" width="180" height="60" as="geometry" />
        </mxCell>
        <mxCell id="P5QB1PJldriL9mMZKFmA-86" value="" style="shape=tableRow;horizontal=0;startSize=0;swimlaneHead=0;swimlaneBody=0;fillColor=none;collapsible=0;dropTarget=0;points=[[0,0.5],[1,0.5]];portConstraint=eastwest;top=0;left=0;right=0;bottom=1;strokeColor=#000000;" vertex="1" parent="P5QB1PJldriL9mMZKFmA-85">
          <mxGeometry y="30" width="180" height="30" as="geometry" />
        </mxCell>
        <mxCell id="P5QB1PJldriL9mMZKFmA-87" value="PK" style="shape=partialRectangle;connectable=0;fillColor=none;top=0;left=0;bottom=0;right=0;fontStyle=1;overflow=hidden;strokeColor=#000000;" vertex="1" parent="P5QB1PJldriL9mMZKFmA-86">
          <mxGeometry width="30" height="30" as="geometry">
            <mxRectangle width="30" height="30" as="alternateBounds" />
          </mxGeometry>
        </mxCell>
        <mxCell id="P5QB1PJldriL9mMZKFmA-88" value="código cliente" style="shape=partialRectangle;connectable=0;fillColor=none;top=0;left=0;bottom=0;right=0;align=left;spacingLeft=6;fontStyle=5;overflow=hidden;strokeColor=#000000;" vertex="1" parent="P5QB1PJldriL9mMZKFmA-86">
          <mxGeometry x="30" width="150" height="30" as="geometry">
            <mxRectangle width="150" height="30" as="alternateBounds" />
          </mxGeometry>
        </mxCell>
        <mxCell id="P5QB1PJldriL9mMZKFmA-98" value="producto" style="shape=table;startSize=30;container=1;collapsible=1;childLayout=tableLayout;fixedRows=1;rowLines=0;fontStyle=1;align=center;resizeLast=1;strokeColor=#000000;" vertex="1" parent="1">
          <mxGeometry x="610" y="860" width="180" height="60" as="geometry" />
        </mxCell>
        <mxCell id="P5QB1PJldriL9mMZKFmA-99" value="" style="shape=tableRow;horizontal=0;startSize=0;swimlaneHead=0;swimlaneBody=0;fillColor=none;collapsible=0;dropTarget=0;points=[[0,0.5],[1,0.5]];portConstraint=eastwest;top=0;left=0;right=0;bottom=1;strokeColor=#000000;" vertex="1" parent="P5QB1PJldriL9mMZKFmA-98">
          <mxGeometry y="30" width="180" height="30" as="geometry" />
        </mxCell>
        <mxCell id="P5QB1PJldriL9mMZKFmA-100" value="PK" style="shape=partialRectangle;connectable=0;fillColor=none;top=0;left=0;bottom=0;right=0;fontStyle=1;overflow=hidden;strokeColor=#000000;" vertex="1" parent="P5QB1PJldriL9mMZKFmA-99">
          <mxGeometry width="30" height="30" as="geometry">
            <mxRectangle width="30" height="30" as="alternateBounds" />
          </mxGeometry>
        </mxCell>
        <mxCell id="P5QB1PJldriL9mMZKFmA-101" value="código producto" style="shape=partialRectangle;connectable=0;fillColor=none;top=0;left=0;bottom=0;right=0;align=left;spacingLeft=6;fontStyle=5;overflow=hidden;strokeColor=#000000;" vertex="1" parent="P5QB1PJldriL9mMZKFmA-99">
          <mxGeometry x="30" width="150" height="30" as="geometry">
            <mxRectangle width="150" height="30" as="alternateBounds" />
          </mxGeometry>
        </mxCell>
        <mxCell id="P5QB1PJldriL9mMZKFmA-124" value="compra" style="shape=table;startSize=30;container=1;collapsible=1;childLayout=tableLayout;fixedRows=1;rowLines=0;fontStyle=1;align=center;resizeLast=1;strokeColor=#000000;" vertex="1" parent="1">
          <mxGeometry x="340" y="860" width="180" height="90" as="geometry" />
        </mxCell>
        <mxCell id="P5QB1PJldriL9mMZKFmA-125" value="" style="shape=tableRow;horizontal=0;startSize=0;swimlaneHead=0;swimlaneBody=0;fillColor=none;collapsible=0;dropTarget=0;points=[[0,0.5],[1,0.5]];portConstraint=eastwest;top=0;left=0;right=0;bottom=0;strokeColor=#000000;" vertex="1" parent="P5QB1PJldriL9mMZKFmA-124">
          <mxGeometry y="30" width="180" height="30" as="geometry" />
        </mxCell>
        <mxCell id="P5QB1PJldriL9mMZKFmA-126" value="PK,FK1" style="shape=partialRectangle;connectable=0;fillColor=none;top=0;left=0;bottom=0;right=0;fontStyle=1;overflow=hidden;strokeColor=#000000;" vertex="1" parent="P5QB1PJldriL9mMZKFmA-125">
          <mxGeometry width="60" height="30" as="geometry">
            <mxRectangle width="60" height="30" as="alternateBounds" />
          </mxGeometry>
        </mxCell>
        <mxCell id="P5QB1PJldriL9mMZKFmA-127" value="código cliente" style="shape=partialRectangle;connectable=0;fillColor=none;top=0;left=0;bottom=0;right=0;align=left;spacingLeft=6;fontStyle=5;overflow=hidden;strokeColor=#000000;" vertex="1" parent="P5QB1PJldriL9mMZKFmA-125">
          <mxGeometry x="60" width="120" height="30" as="geometry">
            <mxRectangle width="120" height="30" as="alternateBounds" />
          </mxGeometry>
        </mxCell>
        <mxCell id="P5QB1PJldriL9mMZKFmA-128" value="" style="shape=tableRow;horizontal=0;startSize=0;swimlaneHead=0;swimlaneBody=0;fillColor=none;collapsible=0;dropTarget=0;points=[[0,0.5],[1,0.5]];portConstraint=eastwest;top=0;left=0;right=0;bottom=1;strokeColor=#000000;" vertex="1" parent="P5QB1PJldriL9mMZKFmA-124">
          <mxGeometry y="60" width="180" height="30" as="geometry" />
        </mxCell>
        <mxCell id="P5QB1PJldriL9mMZKFmA-129" value="PK,FK2" style="shape=partialRectangle;connectable=0;fillColor=none;top=0;left=0;bottom=0;right=0;fontStyle=1;overflow=hidden;strokeColor=#000000;" vertex="1" parent="P5QB1PJldriL9mMZKFmA-128">
          <mxGeometry width="60" height="30" as="geometry">
            <mxRectangle width="60" height="30" as="alternateBounds" />
          </mxGeometry>
        </mxCell>
        <mxCell id="P5QB1PJldriL9mMZKFmA-130" value="código producto" style="shape=partialRectangle;connectable=0;fillColor=none;top=0;left=0;bottom=0;right=0;align=left;spacingLeft=6;fontStyle=5;overflow=hidden;strokeColor=#000000;" vertex="1" parent="P5QB1PJldriL9mMZKFmA-128">
          <mxGeometry x="60" width="120" height="30" as="geometry">
            <mxRectangle width="120" height="30" as="alternateBounds" />
          </mxGeometry>
        </mxCell>
        <mxCell id="P5QB1PJldriL9mMZKFmA-137" style="edgeStyle=orthogonalEdgeStyle;rounded=0;orthogonalLoop=1;jettySize=auto;html=1;entryX=1;entryY=0.5;entryDx=0;entryDy=0;" edge="1" parent="1" source="P5QB1PJldriL9mMZKFmA-125" target="P5QB1PJldriL9mMZKFmA-86">
          <mxGeometry relative="1" as="geometry" />
        </mxCell>
        <mxCell id="P5QB1PJldriL9mMZKFmA-138" style="edgeStyle=orthogonalEdgeStyle;rounded=0;orthogonalLoop=1;jettySize=auto;html=1;entryX=0;entryY=0.5;entryDx=0;entryDy=0;" edge="1" parent="1" source="P5QB1PJldriL9mMZKFmA-128" target="P5QB1PJldriL9mMZKFmA-99">
          <mxGeometry relative="1" as="geometry" />
        </mxCell>
        <mxCell id="P5QB1PJldriL9mMZKFmA-139" value="Representa la relación entre Personas y sus padres." style="text;whiteSpace=wrap;html=1;" vertex="1" parent="1">
          <mxGeometry x="15" y="970" width="310" height="40" as="geometry" />
        </mxCell>
        <mxCell id="P5QB1PJldriL9mMZKFmA-140" value="persona" style="whiteSpace=wrap;html=1;align=center;fillColor=#d5e8d4;strokeColor=#82b366;" vertex="1" parent="1">
          <mxGeometry x="210" y="1060" width="100" height="40" as="geometry" />
        </mxCell>
        <mxCell id="P5QB1PJldriL9mMZKFmA-144" style="edgeStyle=orthogonalEdgeStyle;rounded=0;orthogonalLoop=1;jettySize=auto;html=1;entryX=0.5;entryY=1;entryDx=0;entryDy=0;" edge="1" parent="1" source="P5QB1PJldriL9mMZKFmA-141" target="P5QB1PJldriL9mMZKFmA-140">
          <mxGeometry relative="1" as="geometry">
            <mxPoint x="530" y="1160" as="targetPoint" />
            <Array as="points">
              <mxPoint x="560" y="1070" />
              <mxPoint x="560" y="1140" />
              <mxPoint x="260" y="1140" />
            </Array>
          </mxGeometry>
        </mxCell>
        <mxCell id="P5QB1PJldriL9mMZKFmA-141" value="es padre" style="shape=rhombus;perimeter=rhombusPerimeter;whiteSpace=wrap;html=1;align=center;fillColor=#fff2cc;strokeColor=#d6b656;" vertex="1" parent="1">
          <mxGeometry x="370" y="1040" width="120" height="60" as="geometry" />
        </mxCell>
        <mxCell id="P5QB1PJldriL9mMZKFmA-142" value="" style="endArrow=none;html=1;rounded=0;exitX=1;exitY=0.25;exitDx=0;exitDy=0;entryX=0;entryY=0.5;entryDx=0;entryDy=0;" edge="1" parent="1" source="P5QB1PJldriL9mMZKFmA-140" target="P5QB1PJldriL9mMZKFmA-141">
          <mxGeometry relative="1" as="geometry">
            <mxPoint x="340" y="910" as="sourcePoint" />
            <mxPoint x="500" y="910" as="targetPoint" />
          </mxGeometry>
        </mxCell>
        <mxCell id="P5QB1PJldriL9mMZKFmA-145" value="( 1,1 )" style="text;html=1;strokeColor=none;fillColor=none;align=center;verticalAlign=middle;whiteSpace=wrap;rounded=0;" vertex="1" parent="1">
          <mxGeometry x="310" y="1040" width="60" height="30" as="geometry" />
        </mxCell>
        <mxCell id="P5QB1PJldriL9mMZKFmA-146" value="( 0,n )" style="text;html=1;strokeColor=none;fillColor=none;align=center;verticalAlign=middle;whiteSpace=wrap;rounded=0;" vertex="1" parent="1">
          <mxGeometry x="310" y="1110" width="60" height="30" as="geometry" />
        </mxCell>
        <mxCell id="P5QB1PJldriL9mMZKFmA-147" value="1 : N" style="text;html=1;strokeColor=none;fillColor=none;align=center;verticalAlign=middle;whiteSpace=wrap;rounded=0;" vertex="1" parent="1">
          <mxGeometry x="400" y="1010" width="60" height="30" as="geometry" />
        </mxCell>
        <mxCell id="P5QB1PJldriL9mMZKFmA-148" value="persona" style="shape=table;startSize=30;container=1;collapsible=1;childLayout=tableLayout;fixedRows=1;rowLines=0;fontStyle=1;align=center;resizeLast=1;strokeColor=#000000;" vertex="1" parent="1">
          <mxGeometry x="180" y="1200" width="180" height="60" as="geometry" />
        </mxCell>
        <mxCell id="P5QB1PJldriL9mMZKFmA-149" value="" style="shape=tableRow;horizontal=0;startSize=0;swimlaneHead=0;swimlaneBody=0;fillColor=none;collapsible=0;dropTarget=0;points=[[0,0.5],[1,0.5]];portConstraint=eastwest;top=0;left=0;right=0;bottom=1;strokeColor=#000000;" vertex="1" parent="P5QB1PJldriL9mMZKFmA-148">
          <mxGeometry y="30" width="180" height="30" as="geometry" />
        </mxCell>
        <mxCell id="P5QB1PJldriL9mMZKFmA-150" value="PK" style="shape=partialRectangle;connectable=0;fillColor=none;top=0;left=0;bottom=0;right=0;fontStyle=1;overflow=hidden;strokeColor=#000000;" vertex="1" parent="P5QB1PJldriL9mMZKFmA-149">
          <mxGeometry width="30" height="30" as="geometry">
            <mxRectangle width="30" height="30" as="alternateBounds" />
          </mxGeometry>
        </mxCell>
        <mxCell id="P5QB1PJldriL9mMZKFmA-151" value="dni" style="shape=partialRectangle;connectable=0;fillColor=none;top=0;left=0;bottom=0;right=0;align=left;spacingLeft=6;fontStyle=5;overflow=hidden;strokeColor=#000000;" vertex="1" parent="P5QB1PJldriL9mMZKFmA-149">
          <mxGeometry x="30" width="150" height="30" as="geometry">
            <mxRectangle width="150" height="30" as="alternateBounds" />
          </mxGeometry>
        </mxCell>
        <mxCell id="P5QB1PJldriL9mMZKFmA-159" value="padre" style="shape=table;startSize=30;container=1;collapsible=1;childLayout=tableLayout;fixedRows=1;rowLines=0;fontStyle=1;align=center;resizeLast=1;" vertex="1" parent="1">
          <mxGeometry x="610" y="1200" width="180" height="90" as="geometry">
            <mxRectangle x="497.5" y="540" width="80" height="30" as="alternateBounds" />
          </mxGeometry>
        </mxCell>
        <mxCell id="P5QB1PJldriL9mMZKFmA-160" value="" style="shape=tableRow;horizontal=0;startSize=0;swimlaneHead=0;swimlaneBody=0;fillColor=none;collapsible=0;dropTarget=0;points=[[0,0.5],[1,0.5]];portConstraint=eastwest;top=0;left=0;right=0;bottom=1;" vertex="1" parent="P5QB1PJldriL9mMZKFmA-159">
          <mxGeometry y="30" width="180" height="30" as="geometry" />
        </mxCell>
        <mxCell id="P5QB1PJldriL9mMZKFmA-161" value="PK" style="shape=partialRectangle;connectable=0;fillColor=none;top=0;left=0;bottom=0;right=0;fontStyle=1;overflow=hidden;" vertex="1" parent="P5QB1PJldriL9mMZKFmA-160">
          <mxGeometry width="30" height="30" as="geometry">
            <mxRectangle width="30" height="30" as="alternateBounds" />
          </mxGeometry>
        </mxCell>
        <mxCell id="P5QB1PJldriL9mMZKFmA-162" value="dni" style="shape=partialRectangle;connectable=0;fillColor=none;top=0;left=0;bottom=0;right=0;align=left;spacingLeft=6;fontStyle=5;overflow=hidden;" vertex="1" parent="P5QB1PJldriL9mMZKFmA-160">
          <mxGeometry x="30" width="150" height="30" as="geometry">
            <mxRectangle width="150" height="30" as="alternateBounds" />
          </mxGeometry>
        </mxCell>
        <mxCell id="P5QB1PJldriL9mMZKFmA-163" value="" style="shape=tableRow;horizontal=0;startSize=0;swimlaneHead=0;swimlaneBody=0;fillColor=none;collapsible=0;dropTarget=0;points=[[0,0.5],[1,0.5]];portConstraint=eastwest;top=0;left=0;right=0;bottom=0;" vertex="1" parent="P5QB1PJldriL9mMZKFmA-159">
          <mxGeometry y="60" width="180" height="30" as="geometry" />
        </mxCell>
        <mxCell id="P5QB1PJldriL9mMZKFmA-164" value="FK" style="shape=partialRectangle;connectable=0;fillColor=none;top=0;left=0;bottom=0;right=0;editable=1;overflow=hidden;" vertex="1" parent="P5QB1PJldriL9mMZKFmA-163">
          <mxGeometry width="30" height="30" as="geometry">
            <mxRectangle width="30" height="30" as="alternateBounds" />
          </mxGeometry>
        </mxCell>
        <mxCell id="P5QB1PJldriL9mMZKFmA-165" value="dni hijo" style="shape=partialRectangle;connectable=0;fillColor=none;top=0;left=0;bottom=0;right=0;align=left;spacingLeft=6;overflow=hidden;" vertex="1" parent="P5QB1PJldriL9mMZKFmA-163">
          <mxGeometry x="30" width="150" height="30" as="geometry">
            <mxRectangle width="150" height="30" as="alternateBounds" />
          </mxGeometry>
        </mxCell>
        <mxCell id="P5QB1PJldriL9mMZKFmA-166" style="edgeStyle=orthogonalEdgeStyle;rounded=0;orthogonalLoop=1;jettySize=auto;html=1;entryX=1;entryY=0.75;entryDx=0;entryDy=0;" edge="1" parent="1" source="P5QB1PJldriL9mMZKFmA-163" target="P5QB1PJldriL9mMZKFmA-148">
          <mxGeometry relative="1" as="geometry" />
        </mxCell>
      </root>
    </mxGraphModel>
  </diagram>
</mxfile>
